<svg viewBox="0 0 120 120" xmlns="http://www.w3.org/2000/svg">
  <rect x="28" y="52" width="64" height="44" rx="2" class="mi-fill" />
  <rect x="28" y="52" width="64" height="44" rx="2" class="mi-stroke" />
  <rect x="36" y="52" width="6" height="44" class="mi-hole" />
  <rect x="57" y="52" width="6" height="44" class="mi-hole" />
  <rect x="78" y="52" width="6" height="44" class="mi-hole" />
  <rect x="24" y="46" width="72" height="8" rx="1" class="mi-fill" />
  <rect x="24" y="46" width="72" height="8" rx="1" class="mi-stroke" />
  <path d="M20 46 L60 18 L100 46 Z" class="mi-fill" />
  <path d="M20 46 L60 18 L100 46 Z" class="mi-stroke" />
  <path d="M60 10 L61.8 15.5 L67.5 15.5 L63 18.9 L64.8 24.5 L60 21.1 L55.2 24.5 L57 18.9 L52.5 15.5 L58.2 15.5 Z" class="mi-fill" style="fill: var(--ink)" />
</svg>
