<svg viewBox="0 0 120 120" xmlns="http://www.w3.org/2000/svg">
  <path d="M24 22 Q24 12 34 12 L86 12 Q96 12 96 22 L96 74 Q96 84 86 84 L62 84 L46 100 L48 84 L34 84 Q24 84 24 74 Z" class="mi-fill" />
  <path d="M24 22 Q24 12 34 12 L86 12 Q96 12 96 22 L96 74 Q96 84 86 84 L62 84 L46 100 L48 84 L34 84 Q24 84 24 74 Z" class="mi-stroke" />
  <line x1="38" y1="36" x2="82" y2="36" stroke="var(--color-paper)" stroke-width="4.5" stroke-linecap="round" />
  <line x1="38" y1="50" x2="82" y2="50" stroke="var(--color-paper)" stroke-width="4.5" stroke-linecap="round" />
  <line x1="38" y1="64" x2="64" y2="64" stroke="var(--color-paper)" stroke-width="4.5" stroke-linecap="round" />
</svg>
